<ttFont>
    <TTGlyph name=".notdef" xMin="193" yMin="0" xMax="1034" yMax="1462">
      <contour>
        <pt x="193" y="1462" on="1"/>
        <pt x="1034" y="1462" on="1"/>
        <pt x="1034" y="0" on="1"/>
        <pt x="193" y="0" on="1"/>
      </contour>
      <contour>
        <pt x="297" y="104" on="1"/>
        <pt x="930" y="104" on="1"/>
        <pt x="930" y="1358" on="1"/>
        <pt x="297" y="1358" on="1"/>
      </contour>
    </TTGlyph>
    <TTGlyph name="glyph00027" xMin="143" yMin="0" xMax="1706" yMax="1298">
      <contour>
        <pt x="442" y="1298" on="1"/>
        <pt x="606" y="1298" on="1"/>
        <pt x="406" y="442" on="1"/>
        <pt x="390" y="376" on="0"/>
        <pt x="355" y="252" on="0"/>
        <pt x="340" y="190" on="1"/>
        <pt x="456" y="277" on="0"/>
        <pt x="714" y="496" on="0"/>
        <pt x="859" y="632" on="1"/>
        <pt x="803" y="690" on="0"/>
        <pt x="688" y="799" on="0"/>
        <pt x="627" y="850" on="1"/>
        <pt x="723" y="964" on="1"/>
        <pt x="786" y="910" on="0"/>
        <pt x="908" y="796" on="0"/>
        <pt x="968" y="735" on="1"/>
        <pt x="1105" y="867" on="0"/>
        <pt x="1373" y="1146" on="0"/>
        <pt x="1509" y="1298" on="1"/>
        <pt x="1706" y="1298" on="1"/>
        <pt x="1494" y="1068" on="0"/>
        <pt x="1177" y="735" on="0"/>
        <pt x="1069" y="629" on="1"/>
        <pt x="1462" y="197" on="1"/>
        <pt x="1354" y="98" on="1"/>
        <pt x="958" y="526" on="1"/>
        <pt x="605" y="193" on="0"/>
        <pt x="305" y="0" on="1"/>
        <pt x="143" y="0" on="1"/>
      </contour>
    </TTGlyph>
    <TTGlyph name="glyph00028" xMin="143" yMin="0" xMax="1706" yMax="1298">
      <contour>
        <pt x="1596" y="363" on="1"/>
        <pt x="1501" y="475" on="0"/>
        <pt x="1310" y="676" on="0"/>
        <pt x="1207" y="768" on="1"/>
        <pt x="1169" y="728" on="0"/>
        <pt x="1099" y="659" on="0"/>
        <pt x="1069" y="629" on="1"/>
        <pt x="1462" y="197" on="1"/>
        <pt x="1354" y="98" on="1"/>
        <pt x="958" y="526" on="1"/>
        <pt x="605" y="193" on="0"/>
        <pt x="305" y="0" on="1"/>
        <pt x="143" y="0" on="1"/>
        <pt x="442" y="1298" on="1"/>
        <pt x="606" y="1298" on="1"/>
        <pt x="406" y="442" on="1"/>
        <pt x="390" y="376" on="0"/>
        <pt x="355" y="252" on="0"/>
        <pt x="340" y="190" on="1"/>
        <pt x="463" y="282" on="0"/>
        <pt x="738" y="518" on="0"/>
        <pt x="893" y="664" on="1"/>
        <pt x="1202" y="956" on="0"/>
        <pt x="1509" y="1298" on="1"/>
        <pt x="1706" y="1298" on="1"/>
        <pt x="1591" y="1173" on="0"/>
        <pt x="1395" y="964" on="0"/>
        <pt x="1311" y="876" on="1"/>
        <pt x="1519" y="690" on="0"/>
        <pt x="1705" y="464" on="1"/>
      </contour>
    </TTGlyph>
    <TTGlyph name="glyph00029" xMin="143" yMin="0" xMax="2095" yMax="1298">
      <contour>
        <pt x="362" y="303" on="1"/>
        <pt x="1114" y="1298" on="1"/>
        <pt x="1276" y="1298" on="1"/>
        <pt x="1233" y="532" on="1"/>
        <pt x="1228" y="387" on="0"/>
        <pt x="1206" y="248" on="1"/>
        <pt x="1257" y="339" on="1"/>
        <pt x="1270" y="360" on="0"/>
        <pt x="1577" y="840" on="0"/>
        <pt x="1872" y="1298" on="1"/>
        <pt x="2046" y="1298" on="1"/>
        <pt x="1210" y="0" on="1"/>
        <pt x="1049" y="0" on="1"/>
        <pt x="1090" y="788" on="1"/>
        <pt x="1099" y="913" on="0"/>
        <pt x="1110" y="1050" on="0"/>
        <pt x="1112" y="1067" on="1"/>
        <pt x="1099" y="1047" on="0"/>
        <pt x="1013" y="926" on="0"/>
        <pt x="938" y="823" on="1"/>
        <pt x="305" y="0" on="1"/>
        <pt x="143" y="0" on="1"/>
        <pt x="442" y="1298" on="1"/>
        <pt x="606" y="1298" on="1"/>
        <pt x="556" y="1083" on="0"/>
        <pt x="479" y="754" on="0"/>
        <pt x="451" y="639" on="1"/>
        <pt x="424" y="524" on="0"/>
        <pt x="379" y="357" on="0"/>
      </contour>
      <contour>
        <pt x="1609" y="275" on="1"/>
        <pt x="1730" y="426" on="0"/>
        <pt x="1908" y="689" on="0"/>
        <pt x="1969" y="798" on="1"/>
        <pt x="2095" y="726" on="1"/>
        <pt x="2078" y="695" on="0"/>
        <pt x="2026" y="610" on="0"/>
        <pt x="1964" y="513" on="0"/>
        <pt x="1894" y="410" on="0"/>
        <pt x="1823" y="311" on="0"/>
        <pt x="1754" y="223" on="0"/>
        <pt x="1724" y="190" on="1"/>
      </contour>
    </TTGlyph>
    <TTGlyph name="glyph00030" xMin="4" yMin="0" xMax="1845" yMax="1298">
      <contour>
        <pt x="545" y="442" on="1"/>
        <pt x="530" y="383" on="0"/>
        <pt x="502" y="266" on="0"/>
        <pt x="479" y="190" on="1"/>
        <pt x="528" y="227" on="0"/>
        <pt x="637" y="317" on="0"/>
        <pt x="688" y="358" on="1"/>
        <pt x="809" y="459" on="0"/>
        <pt x="1061" y="690" on="0"/>
        <pt x="1307" y="932" on="0"/>
        <pt x="1542" y="1180" on="0"/>
        <pt x="1649" y="1298" on="1"/>
        <pt x="1845" y="1298" on="1"/>
        <pt x="1706" y="1145" on="0"/>
        <pt x="1372" y="791" on="0"/>
        <pt x="1010" y="438" on="0"/>
        <pt x="631" y="117" on="0"/>
        <pt x="444" y="0" on="1"/>
        <pt x="283" y="0" on="1"/>
        <pt x="449" y="725" on="1"/>
        <pt x="4" y="541" on="1"/>
        <pt x="45" y="719" on="1"/>
        <pt x="379" y="854" on="1"/>
        <pt x="420" y="870" on="0"/>
        <pt x="489" y="895" on="0"/>
        <pt x="524" y="895" on="1"/>
        <pt x="571" y="895" on="0"/>
        <pt x="612" y="834" on="0"/>
        <pt x="612" y="797" on="1"/>
        <pt x="612" y="768" on="0"/>
        <pt x="608" y="719" on="0"/>
        <pt x="596" y="655" on="0"/>
        <pt x="573" y="559" on="0"/>
        <pt x="555" y="483" on="1"/>
      </contour>
      <contour>
        <pt x="676" y="1049" on="1"/>
        <pt x="82" y="1049" on="1"/>
        <pt x="115" y="1188" on="1"/>
        <pt x="709" y="1188" on="1"/>
      </contour>
    </TTGlyph>
    <TTGlyph name="glyph00031" xMin="4" yMin="0" xMax="1845" yMax="1380">
      <contour>
        <pt x="545" y="442" on="1"/>
        <pt x="530" y="383" on="0"/>
        <pt x="502" y="266" on="0"/>
        <pt x="479" y="190" on="1"/>
        <pt x="528" y="227" on="0"/>
        <pt x="637" y="317" on="0"/>
        <pt x="688" y="358" on="1"/>
        <pt x="809" y="459" on="0"/>
        <pt x="1061" y="690" on="0"/>
        <pt x="1307" y="932" on="0"/>
        <pt x="1542" y="1180" on="0"/>
        <pt x="1649" y="1298" on="1"/>
        <pt x="1845" y="1298" on="1"/>
        <pt x="1706" y="1145" on="0"/>
        <pt x="1372" y="791" on="0"/>
        <pt x="1010" y="438" on="0"/>
        <pt x="631" y="117" on="0"/>
        <pt x="444" y="0" on="1"/>
        <pt x="283" y="0" on="1"/>
        <pt x="449" y="725" on="1"/>
        <pt x="4" y="541" on="1"/>
        <pt x="45" y="719" on="1"/>
        <pt x="379" y="854" on="1"/>
        <pt x="420" y="870" on="0"/>
        <pt x="489" y="895" on="0"/>
        <pt x="524" y="895" on="1"/>
        <pt x="571" y="895" on="0"/>
        <pt x="612" y="834" on="0"/>
        <pt x="612" y="797" on="1"/>
        <pt x="612" y="768" on="0"/>
        <pt x="608" y="719" on="0"/>
        <pt x="596" y="655" on="0"/>
        <pt x="573" y="559" on="0"/>
        <pt x="555" y="483" on="1"/>
      </contour>
      <contour>
        <pt x="764" y="1380" on="1"/>
        <pt x="682" y="1024" on="1"/>
        <pt x="518" y="1024" on="1"/>
        <pt x="600" y="1380" on="1"/>
      </contour>
      <contour>
        <pt x="1104" y="289" on="1"/>
        <pt x="1317" y="432" on="0"/>
        <pt x="1522" y="600" on="0"/>
        <pt x="1606" y="678" on="1"/>
        <pt x="1708" y="569" on="1"/>
        <pt x="1475" y="350" on="0"/>
        <pt x="1192" y="170" on="1"/>
      </contour>
    </TTGlyph>
    <TTGlyph name="glyph00032" xMin="63" yMin="0" xMax="1841" yMax="1298">
      <contour>
        <pt x="475" y="190" on="1"/>
        <pt x="705" y="363" on="0"/>
        <pt x="994" y="632" on="1"/>
        <pt x="938" y="690" on="0"/>
        <pt x="822" y="798" on="0"/>
        <pt x="762" y="850" on="1"/>
        <pt x="858" y="964" on="1"/>
        <pt x="921" y="910" on="0"/>
        <pt x="1043" y="797" on="0"/>
        <pt x="1103" y="736" on="1"/>
        <pt x="1374" y="997" on="0"/>
        <pt x="1645" y="1298" on="1"/>
        <pt x="1841" y="1298" on="1"/>
        <pt x="1438" y="858" on="0"/>
        <pt x="1200" y="627" on="1"/>
        <pt x="1597" y="197" on="1"/>
        <pt x="1489" y="98" on="1"/>
        <pt x="1094" y="526" on="1"/>
        <pt x="741" y="193" on="0"/>
        <pt x="440" y="0" on="1"/>
        <pt x="279" y="0" on="1"/>
        <pt x="506" y="979" on="1"/>
        <pt x="63" y="811" on="1"/>
        <pt x="102" y="983" on="1"/>
        <pt x="436" y="1110" on="1"/>
        <pt x="522" y="1145" on="0"/>
        <pt x="580" y="1145" on="1"/>
        <pt x="627" y="1145" on="0"/>
        <pt x="668" y="1083" on="0"/>
        <pt x="668" y="1047" on="1"/>
        <pt x="668" y="965" on="0"/>
        <pt x="524" y="375" on="0"/>
      </contour>
    </TTGlyph>
    <TTGlyph name="glyph00033" xMin="63" yMin="0" xMax="1841" yMax="1298">
      <contour>
        <pt x="1731" y="363" on="1"/>
        <pt x="1635" y="475" on="0"/>
        <pt x="1445" y="676" on="0"/>
        <pt x="1342" y="768" on="1"/>
        <pt x="1265" y="690" on="0"/>
        <pt x="1200" y="627" on="1"/>
        <pt x="1597" y="197" on="1"/>
        <pt x="1489" y="98" on="1"/>
        <pt x="1094" y="526" on="1"/>
        <pt x="741" y="193" on="0"/>
        <pt x="440" y="0" on="1"/>
        <pt x="279" y="0" on="1"/>
        <pt x="506" y="979" on="1"/>
        <pt x="63" y="811" on="1"/>
        <pt x="102" y="983" on="1"/>
        <pt x="436" y="1110" on="1"/>
        <pt x="522" y="1145" on="0"/>
        <pt x="580" y="1145" on="1"/>
        <pt x="627" y="1145" on="0"/>
        <pt x="668" y="1083" on="0"/>
        <pt x="668" y="1047" on="1"/>
        <pt x="668" y="965" on="0"/>
        <pt x="524" y="375" on="0"/>
        <pt x="475" y="190" on="1"/>
        <pt x="719" y="373" on="0"/>
        <pt x="1337" y="956" on="0"/>
        <pt x="1645" y="1298" on="1"/>
        <pt x="1841" y="1298" on="1"/>
        <pt x="1618" y="1055" on="0"/>
        <pt x="1446" y="875" on="1"/>
        <pt x="1653" y="692" on="0"/>
        <pt x="1840" y="464" on="1"/>
      </contour>
    </TTGlyph>
    <TTGlyph name="glyph00034" xMin="82" yMin="-142" xMax="1839" yMax="1298">
      <contour>
        <pt x="688" y="1130" on="1"/>
        <pt x="688" y="1094" on="0"/>
        <pt x="672" y="1014" on="1"/>
        <pt x="1055" y="692" on="1"/>
        <pt x="1177" y="809" on="0"/>
        <pt x="1469" y="1110" on="0"/>
        <pt x="1642" y="1298" on="1"/>
        <pt x="1839" y="1298" on="1"/>
        <pt x="1441" y="860" on="0"/>
        <pt x="1167" y="596" on="1"/>
        <pt x="1453" y="356" on="1"/>
        <pt x="1510" y="308" on="0"/>
        <pt x="1567" y="239" on="0"/>
        <pt x="1567" y="207" on="1"/>
        <pt x="1567" y="177" on="0"/>
        <pt x="1518" y="113" on="0"/>
        <pt x="1467" y="71" on="1"/>
        <pt x="1215" y="-142" on="1"/>
        <pt x="1117" y="-31" on="1"/>
        <pt x="1195" y="29" on="0"/>
        <pt x="1334" y="146" on="0"/>
        <pt x="1397" y="209" on="1"/>
        <pt x="1061" y="496" on="1"/>
        <pt x="894" y="340" on="0"/>
        <pt x="584" y="94" on="0"/>
        <pt x="438" y="0" on="1"/>
        <pt x="276" y="0" on="1"/>
        <pt x="526" y="1063" on="1"/>
        <pt x="82" y="870" on="1"/>
        <pt x="123" y="1049" on="1"/>
        <pt x="455" y="1190" on="1"/>
        <pt x="503" y="1210" on="0"/>
        <pt x="577" y="1229" on="0"/>
        <pt x="600" y="1229" on="1"/>
        <pt x="624" y="1229" on="0"/>
        <pt x="657" y="1212" on="0"/>
        <pt x="678" y="1184" on="0"/>
        <pt x="688" y="1148" on="0"/>
      </contour>
      <contour>
        <pt x="473" y="190" on="1"/>
        <pt x="530" y="232" on="0"/>
        <pt x="667" y="343" on="0"/>
        <pt x="748" y="413" on="1"/>
        <pt x="910" y="551" on="0"/>
        <pt x="946" y="592" on="1"/>
        <pt x="635" y="856" on="1"/>
        <pt x="539" y="442" on="1"/>
        <pt x="524" y="376" on="0"/>
        <pt x="489" y="253" on="0"/>
      </contour>
    </TTGlyph>
    <TTGlyph name="glyph00035" xMin="139" yMin="0" xMax="1202" yMax="1298">
      <contour>
        <pt x="403" y="0" on="1"/>
        <pt x="540" y="604" on="1"/>
        <pt x="139" y="604" on="1"/>
        <pt x="172" y="743" on="1"/>
        <pt x="571" y="743" on="1"/>
        <pt x="664" y="1150" on="1"/>
        <pt x="670" y="1176" on="0"/>
        <pt x="693" y="1229" on="0"/>
        <pt x="727" y="1271" on="0"/>
        <pt x="772" y="1298" on="0"/>
        <pt x="800" y="1298" on="1"/>
        <pt x="834" y="1298" on="0"/>
        <pt x="914" y="1286" on="0"/>
        <pt x="949" y="1279" on="1"/>
        <pt x="1202" y="1232" on="1"/>
        <pt x="1164" y="1095" on="1"/>
        <pt x="830" y="1148" on="1"/>
        <pt x="737" y="743" on="1"/>
        <pt x="1167" y="743" on="1"/>
        <pt x="1134" y="604" on="1"/>
        <pt x="705" y="604" on="1"/>
        <pt x="566" y="0" on="1"/>
      </contour>
    </TTGlyph>
    <TTGlyph name="glyph00036" xMin="139" yMin="-15" xMax="1167" yMax="1283">
      <contour>
        <pt x="1134" y="604" on="1"/>
        <pt x="704" y="604" on="1"/>
        <pt x="598" y="138" on="1"/>
        <pt x="955" y="188" on="1"/>
        <pt x="930" y="51" on="1"/>
        <pt x="656" y="4" on="1"/>
        <pt x="618" y="-3" on="0"/>
        <pt x="532" y="-15" on="0"/>
        <pt x="498" y="-15" on="1"/>
        <pt x="457" y="-15" on="0"/>
        <pt x="423" y="41" on="0"/>
        <pt x="423" y="79" on="1"/>
        <pt x="423" y="86" on="0"/>
        <pt x="429" y="119" on="0"/>
        <pt x="438" y="159" on="0"/>
        <pt x="448" y="200" on="0"/>
        <pt x="451" y="215" on="1"/>
        <pt x="540" y="604" on="1"/>
        <pt x="139" y="604" on="1"/>
        <pt x="172" y="743" on="1"/>
        <pt x="571" y="743" on="1"/>
        <pt x="695" y="1283" on="1"/>
        <pt x="858" y="1283" on="1"/>
        <pt x="735" y="743" on="1"/>
        <pt x="1167" y="743" on="1"/>
      </contour>
    </TTGlyph>
    <TTGlyph name="glyph00037" xMin="143" yMin="-338" xMax="1778" yMax="1298">
      <contour>
        <pt x="1245" y="1044" on="1"/>
        <pt x="1232" y="1027" on="0"/>
        <pt x="1181" y="965" on="0"/>
        <pt x="1141" y="920" on="1"/>
        <pt x="305" y="0" on="1"/>
        <pt x="143" y="0" on="1"/>
        <pt x="442" y="1298" on="1"/>
        <pt x="606" y="1298" on="1"/>
        <pt x="399" y="403" on="1"/>
        <pt x="390" y="363" on="0"/>
        <pt x="371" y="289" on="0"/>
        <pt x="360" y="254" on="1"/>
        <pt x="469" y="389" on="1"/>
        <pt x="1300" y="1298" on="1"/>
        <pt x="1462" y="1298" on="1"/>
        <pt x="1346" y="789" on="0"/>
        <pt x="1217" y="234" on="0"/>
        <pt x="1204" y="190" on="1"/>
        <pt x="1493" y="303" on="1"/>
        <pt x="1516" y="312" on="0"/>
        <pt x="1562" y="324" on="0"/>
        <pt x="1587" y="324" on="1"/>
        <pt x="1698" y="324" on="0"/>
        <pt x="1698" y="172" on="1"/>
        <pt x="1698" y="60" on="0"/>
        <pt x="1630" y="-78" on="1"/>
        <pt x="1562" y="-216" on="0"/>
        <pt x="1444" y="-338" on="1"/>
        <pt x="1339" y="-248" on="1"/>
        <pt x="1550" y="8" on="0"/>
        <pt x="1550" y="166" on="1"/>
        <pt x="1104" y="0" on="1"/>
        <pt x="999" y="0" on="1"/>
      </contour>
      <contour>
        <pt x="1745" y="470" on="1"/>
        <pt x="1348" y="470" on="1"/>
        <pt x="1381" y="609" on="1"/>
        <pt x="1778" y="609" on="1"/>
      </contour>
    </TTGlyph>
    <TTGlyph name="glyph00038" xMin="98" yMin="-285" xMax="1998" yMax="1298">
      <contour>
        <pt x="1458" y="1028" on="1"/>
        <pt x="1194" y="760" on="1"/>
        <pt x="668" y="225" on="0"/>
        <pt x="293" y="0" on="1"/>
        <pt x="131" y="0" on="1"/>
        <pt x="270" y="293" on="0"/>
        <pt x="455" y="788" on="0"/>
        <pt x="541" y="1137" on="1"/>
        <pt x="98" y="956" on="1"/>
        <pt x="137" y="1128" on="1"/>
        <pt x="469" y="1266" on="1"/>
        <pt x="547" y="1298" on="0"/>
        <pt x="618" y="1298" on="1"/>
        <pt x="666" y="1298" on="0"/>
        <pt x="707" y="1237" on="0"/>
        <pt x="707" y="1200" on="1"/>
        <pt x="707" y="1122" on="0"/>
        <pt x="571" y="647" on="0"/>
        <pt x="469" y="371" on="0"/>
        <pt x="410" y="248" on="1"/>
        <pt x="766" y="518" on="0"/>
        <pt x="1260" y="1030" on="1"/>
        <pt x="1520" y="1298" on="1"/>
        <pt x="1681" y="1298" on="1"/>
        <pt x="1522" y="553" on="0"/>
        <pt x="1309" y="160" on="1"/>
        <pt x="1401" y="178" on="0"/>
        <pt x="1679" y="319" on="0"/>
        <pt x="1788" y="408" on="1"/>
        <pt x="1917" y="408" on="1"/>
        <pt x="1837" y="301" on="0"/>
        <pt x="1751" y="-70" on="0"/>
        <pt x="1751" y="-285" on="1"/>
        <pt x="1602" y="-285" on="1"/>
        <pt x="1602" y="0" on="0"/>
        <pt x="1653" y="150" on="1"/>
        <pt x="1368" y="0" on="0"/>
        <pt x="1116" y="0" on="1"/>
        <pt x="1077" y="0" on="1"/>
        <pt x="1200" y="256" on="0"/>
        <pt x="1370" y="715" on="0"/>
      </contour>
      <contour>
        <pt x="1965" y="550" on="1"/>
        <pt x="1568" y="550" on="1"/>
        <pt x="1601" y="689" on="1"/>
        <pt x="1998" y="689" on="1"/>
      </contour>
    </TTGlyph>
    <TTGlyph name="glyph00039" xMin="141" yMin="0" xMax="1704" yMax="1744">
      <contour>
        <pt x="338" y="190" on="1"/>
        <pt x="461" y="282" on="0"/>
        <pt x="736" y="518" on="0"/>
        <pt x="891" y="664" on="1"/>
        <pt x="1200" y="956" on="0"/>
        <pt x="1507" y="1298" on="1"/>
        <pt x="1704" y="1298" on="1"/>
        <pt x="819" y="323" on="0"/>
        <pt x="303" y="0" on="1"/>
        <pt x="141" y="0" on="1"/>
        <pt x="442" y="1298" on="1"/>
        <pt x="604" y="1298" on="1"/>
        <pt x="414" y="483" on="1"/>
        <pt x="397" y="410" on="0"/>
        <pt x="356" y="265" on="0"/>
      </contour>
      <contour>
        <pt x="895" y="1329" on="1"/>
        <pt x="1023" y="1445" on="0"/>
        <pt x="1220" y="1654" on="0"/>
        <pt x="1293" y="1744" on="1"/>
        <pt x="1404" y="1654" on="1"/>
        <pt x="1374" y="1617" on="0"/>
        <pt x="1278" y="1508" on="0"/>
        <pt x="1166" y="1389" on="0"/>
        <pt x="1046" y="1271" on="0"/>
        <pt x="994" y="1226" on="1"/>
      </contour>
    </TTGlyph>
    <TTGlyph name="glyph00040" xMin="141" yMin="0" xMax="1704" yMax="1298">
      <contour>
        <pt x="338" y="190" on="1"/>
        <pt x="461" y="282" on="0"/>
        <pt x="736" y="518" on="0"/>
        <pt x="891" y="664" on="1"/>
        <pt x="1200" y="956" on="0"/>
        <pt x="1507" y="1298" on="1"/>
        <pt x="1704" y="1298" on="1"/>
        <pt x="819" y="323" on="0"/>
        <pt x="303" y="0" on="1"/>
        <pt x="141" y="0" on="1"/>
        <pt x="442" y="1298" on="1"/>
        <pt x="604" y="1298" on="1"/>
        <pt x="414" y="483" on="1"/>
        <pt x="397" y="410" on="0"/>
        <pt x="356" y="265" on="0"/>
      </contour>
      <contour>
        <pt x="1007" y="320" on="1"/>
        <pt x="1152" y="448" on="0"/>
        <pt x="1371" y="678" on="0"/>
        <pt x="1450" y="775" on="1"/>
        <pt x="1567" y="681" on="1"/>
        <pt x="1545" y="653" on="0"/>
        <pt x="1480" y="578" on="0"/>
        <pt x="1402" y="493" on="0"/>
        <pt x="1315" y="403" on="0"/>
        <pt x="1229" y="318" on="0"/>
        <pt x="1146" y="242" on="0"/>
        <pt x="1111" y="215" on="1"/>
      </contour>
    </TTGlyph>
    <TTGlyph name="glyph00041" xMin="264" yMin="-285" xMax="408" yMax="1536">
      <contour>
        <pt x="264" y="-285" on="1"/>
        <pt x="264" y="1536" on="1"/>
        <pt x="408" y="1536" on="1"/>
        <pt x="408" y="-285" on="1"/>
      </contour>
    </TTGlyph>
    <TTGlyph name="glyph00042" xMin="264" yMin="-285" xMax="735" yMax="1536">
      <contour>
        <pt x="264" y="-285" on="1"/>
        <pt x="264" y="1536" on="1"/>
        <pt x="408" y="1536" on="1"/>
        <pt x="408" y="-285" on="1"/>
      </contour>
      <contour>
        <pt x="592" y="-285" on="1"/>
        <pt x="592" y="1536" on="1"/>
        <pt x="735" y="1536" on="1"/>
        <pt x="735" y="-285" on="1"/>
      </contour>
    </TTGlyph>
    <TTGlyph name="uni1720" xMin="63" yMin="0" xMax="1855" yMax="1298">
      <contour>
        <pt x="489" y="190" on="1"/>
        <pt x="733" y="373" on="0"/>
        <pt x="1352" y="956" on="0"/>
        <pt x="1659" y="1298" on="1"/>
        <pt x="1855" y="1298" on="1"/>
        <pt x="973" y="324" on="0"/>
        <pt x="455" y="0" on="1"/>
        <pt x="293" y="0" on="1"/>
        <pt x="518" y="979" on="1"/>
        <pt x="63" y="756" on="1"/>
        <pt x="106" y="940" on="1"/>
        <pt x="446" y="1106" on="1"/>
        <pt x="528" y="1145" on="0"/>
        <pt x="592" y="1145" on="1"/>
        <pt x="639" y="1145" on="0"/>
        <pt x="680" y="1083" on="0"/>
        <pt x="680" y="1047" on="1"/>
        <pt x="680" y="965" on="0"/>
        <pt x="608" y="670" on="1"/>
        <pt x="520" y="295" on="0"/>
      </contour>
    </TTGlyph>
    <TTGlyph name="uni1721" xMin="100" yMin="0" xMax="1849" yMax="1298">
      <contour>
        <pt x="1104" y="289" on="1"/>
        <pt x="1317" y="432" on="0"/>
        <pt x="1522" y="600" on="0"/>
        <pt x="1606" y="678" on="1"/>
        <pt x="1708" y="569" on="1"/>
        <pt x="1475" y="350" on="0"/>
        <pt x="1192" y="170" on="1"/>
      </contour>
      <contour>
        <pt x="483" y="190" on="1"/>
        <pt x="727" y="373" on="0"/>
        <pt x="1346" y="956" on="0"/>
        <pt x="1653" y="1298" on="1"/>
        <pt x="1849" y="1298" on="1"/>
        <pt x="967" y="324" on="0"/>
        <pt x="449" y="0" on="1"/>
        <pt x="287" y="0" on="1"/>
        <pt x="555" y="1133" on="1"/>
        <pt x="100" y="909" on="1"/>
        <pt x="143" y="1096" on="1"/>
        <pt x="483" y="1260" on="1"/>
        <pt x="565" y="1298" on="0"/>
        <pt x="629" y="1298" on="1"/>
        <pt x="676" y="1298" on="0"/>
        <pt x="717" y="1237" on="0"/>
        <pt x="717" y="1200" on="1"/>
        <pt x="717" y="1149" on="0"/>
        <pt x="678" y="983" on="1"/>
        <pt x="549" y="442" on="1"/>
      </contour>
    </TTGlyph>
    <TTGlyph name="uni1722" xMin="236" yMin="0" xMax="1071" yMax="1298">
      <contour>
        <pt x="1071" y="1217" on="1"/>
        <pt x="522" y="741" on="1"/>
        <pt x="1071" y="741" on="1"/>
        <pt x="1071" y="623" on="1"/>
        <pt x="436" y="0" on="1"/>
        <pt x="236" y="0" on="1"/>
        <pt x="842" y="602" on="1"/>
        <pt x="264" y="602" on="1"/>
        <pt x="264" y="707" on="1"/>
        <pt x="668" y="1059" on="0"/>
        <pt x="748" y="1120" on="1"/>
        <pt x="666" y="1108" on="0"/>
        <pt x="614" y="1108" on="1"/>
        <pt x="395" y="1108" on="0"/>
        <pt x="240" y="1169" on="1"/>
        <pt x="293" y="1298" on="1"/>
        <pt x="422" y="1266" on="0"/>
        <pt x="588" y="1251" on="0"/>
        <pt x="680" y="1251" on="1"/>
        <pt x="895" y="1251" on="0"/>
        <pt x="1071" y="1298" on="1"/>
      </contour>
    </TTGlyph>
    <TTGlyph name="uni1723" xMin="160" yMin="0" xMax="1212" yMax="1298">
      <contour>
        <pt x="160" y="0" on="1"/>
        <pt x="473" y="829" on="1"/>
        <pt x="285" y="1044" on="0"/>
        <pt x="258" y="1298" on="1"/>
        <pt x="410" y="1298" on="1"/>
        <pt x="432" y="1112" on="0"/>
        <pt x="530" y="983" on="1"/>
        <pt x="643" y="1298" on="0"/>
        <pt x="899" y="1298" on="1"/>
        <pt x="1034" y="1298" on="0"/>
        <pt x="1212" y="1116" on="0"/>
        <pt x="1212" y="971" on="1"/>
        <pt x="1212" y="834" on="0"/>
        <pt x="1012" y="637" on="0"/>
        <pt x="866" y="637" on="1"/>
        <pt x="729" y="637" on="0"/>
        <pt x="600" y="717" on="1"/>
        <pt x="328" y="0" on="1"/>
      </contour>
      <contour>
        <pt x="905" y="1159" on="1"/>
        <pt x="813" y="1159" on="0"/>
        <pt x="698" y="989" on="0"/>
        <pt x="651" y="852" on="1"/>
        <pt x="739" y="776" on="0"/>
        <pt x="860" y="776" on="1"/>
        <pt x="956" y="776" on="0"/>
        <pt x="1065" y="899" on="0"/>
        <pt x="1065" y="985" on="1"/>
        <pt x="1065" y="1067" on="0"/>
        <pt x="973" y="1159" on="0"/>
      </contour>
    </TTGlyph>
    <TTGlyph name="uni1724" xMin="143" yMin="0" xMax="1462" yMax="1298">
      <contour>
        <pt x="1462" y="1298" on="1"/>
        <pt x="1163" y="0" on="1"/>
        <pt x="999" y="0" on="1"/>
        <pt x="1188" y="811" on="1"/>
        <pt x="1245" y="1044" on="1"/>
        <pt x="1219" y="1010" on="0"/>
        <pt x="1063" y="831" on="0"/>
        <pt x="305" y="0" on="1"/>
        <pt x="143" y="0" on="1"/>
        <pt x="442" y="1298" on="1"/>
        <pt x="606" y="1298" on="1"/>
        <pt x="399" y="403" on="1"/>
        <pt x="383" y="324" on="0"/>
        <pt x="360" y="254" on="1"/>
        <pt x="469" y="389" on="1"/>
        <pt x="596" y="535" on="1"/>
        <pt x="1300" y="1298" on="1"/>
      </contour>
    </TTGlyph>
    <TTGlyph name="uni1725" xMin="143" yMin="0" xMax="1706" yMax="1298">
      <contour>
        <pt x="442" y="1298" on="1"/>
        <pt x="606" y="1298" on="1"/>
        <pt x="406" y="442" on="1"/>
        <pt x="340" y="190" on="1"/>
        <pt x="584" y="373" on="0"/>
        <pt x="1202" y="956" on="0"/>
        <pt x="1509" y="1298" on="1"/>
        <pt x="1706" y="1298" on="1"/>
        <pt x="1284" y="840" on="0"/>
        <pt x="1069" y="629" on="1"/>
        <pt x="1462" y="197" on="1"/>
        <pt x="1354" y="98" on="1"/>
        <pt x="958" y="526" on="1"/>
        <pt x="606" y="193" on="0"/>
        <pt x="305" y="0" on="1"/>
        <pt x="143" y="0" on="1"/>
      </contour>
    </TTGlyph>
    <TTGlyph name="uni1726" xMin="143" yMin="0" xMax="2046" yMax="1298">
      <contour>
        <pt x="362" y="303" on="1"/>
        <pt x="1114" y="1298" on="1"/>
        <pt x="1276" y="1298" on="1"/>
        <pt x="1233" y="532" on="1"/>
        <pt x="1229" y="387" on="0"/>
        <pt x="1206" y="248" on="1"/>
        <pt x="1233" y="297" on="0"/>
        <pt x="1282" y="381" on="0"/>
        <pt x="1872" y="1298" on="1"/>
        <pt x="2046" y="1298" on="1"/>
        <pt x="1210" y="0" on="1"/>
        <pt x="1049" y="0" on="1"/>
        <pt x="1090" y="788" on="1"/>
        <pt x="1108" y="1034" on="0"/>
        <pt x="1112" y="1067" on="1"/>
        <pt x="1087" y="1026" on="0"/>
        <pt x="938" y="823" on="1"/>
        <pt x="305" y="0" on="1"/>
        <pt x="143" y="0" on="1"/>
        <pt x="442" y="1298" on="1"/>
        <pt x="606" y="1298" on="1"/>
        <pt x="506" y="868" on="0"/>
        <pt x="397" y="410" on="0"/>
      </contour>
    </TTGlyph>
    <TTGlyph name="uni1727" xMin="4" yMin="0" xMax="1845" yMax="1380">
      <contour>
        <pt x="545" y="442" on="1"/>
        <pt x="530" y="383" on="0"/>
        <pt x="502" y="266" on="0"/>
        <pt x="479" y="190" on="1"/>
        <pt x="528" y="227" on="0"/>
        <pt x="637" y="317" on="0"/>
        <pt x="688" y="358" on="1"/>
        <pt x="809" y="459" on="0"/>
        <pt x="1061" y="690" on="0"/>
        <pt x="1307" y="932" on="0"/>
        <pt x="1542" y="1180" on="0"/>
        <pt x="1649" y="1298" on="1"/>
        <pt x="1845" y="1298" on="1"/>
        <pt x="1706" y="1145" on="0"/>
        <pt x="1372" y="791" on="0"/>
        <pt x="1010" y="438" on="0"/>
        <pt x="631" y="117" on="0"/>
        <pt x="444" y="0" on="1"/>
        <pt x="283" y="0" on="1"/>
        <pt x="449" y="725" on="1"/>
        <pt x="4" y="541" on="1"/>
        <pt x="45" y="719" on="1"/>
        <pt x="379" y="854" on="1"/>
        <pt x="420" y="870" on="0"/>
        <pt x="489" y="895" on="0"/>
        <pt x="524" y="895" on="1"/>
        <pt x="571" y="895" on="0"/>
        <pt x="612" y="834" on="0"/>
        <pt x="612" y="797" on="1"/>
        <pt x="612" y="768" on="0"/>
        <pt x="608" y="719" on="0"/>
        <pt x="596" y="655" on="0"/>
        <pt x="573" y="559" on="0"/>
        <pt x="555" y="483" on="1"/>
      </contour>
      <contour>
        <pt x="764" y="1380" on="1"/>
        <pt x="682" y="1024" on="1"/>
        <pt x="518" y="1024" on="1"/>
        <pt x="600" y="1380" on="1"/>
      </contour>
    </TTGlyph>
    <TTGlyph name="uni1728" xMin="156" yMin="0" xMax="1864" yMax="1298">
      <contour>
        <pt x="932" y="1122" on="1"/>
        <pt x="1096" y="1014" on="0"/>
        <pt x="1315" y="956" on="1"/>
        <pt x="1372" y="1128" on="0"/>
        <pt x="1518" y="1268" on="0"/>
        <pt x="1628" y="1268" on="1"/>
        <pt x="1729" y="1268" on="0"/>
        <pt x="1864" y="1153" on="0"/>
        <pt x="1864" y="1065" on="1"/>
        <pt x="1864" y="936" on="0"/>
        <pt x="1681" y="782" on="0"/>
        <pt x="1544" y="782" on="1"/>
        <pt x="1427" y="791" on="1"/>
        <pt x="1182" y="0" on="1"/>
        <pt x="1016" y="0" on="1"/>
        <pt x="1272" y="823" on="1"/>
        <pt x="1049" y="881" on="0"/>
        <pt x="889" y="985" on="1"/>
        <pt x="584" y="0" on="1"/>
        <pt x="418" y="0" on="1"/>
        <pt x="770" y="1135" on="1"/>
        <pt x="674" y="1100" on="0"/>
        <pt x="541" y="1100" on="1"/>
        <pt x="438" y="1100" on="0"/>
        <pt x="215" y="1143" on="0"/>
        <pt x="156" y="1171" on="1"/>
        <pt x="211" y="1298" on="1"/>
        <pt x="389" y="1239" on="0"/>
        <pt x="545" y="1239" on="1"/>
        <pt x="702" y="1239" on="0"/>
        <pt x="817" y="1298" on="1"/>
        <pt x="987" y="1298" on="1"/>
      </contour>
      <contour>
        <pt x="1632" y="1128" on="1"/>
        <pt x="1571" y="1128" on="0"/>
        <pt x="1501" y="1022" on="0"/>
        <pt x="1470" y="930" on="1"/>
        <pt x="1550" y="924" on="1"/>
        <pt x="1638" y="924" on="0"/>
        <pt x="1716" y="999" on="0"/>
        <pt x="1716" y="1047" on="1"/>
        <pt x="1716" y="1081" on="0"/>
        <pt x="1673" y="1128" on="0"/>
      </contour>
    </TTGlyph>
    <TTGlyph name="uni1729" xMin="63" yMin="0" xMax="1841" yMax="1298">
      <contour>
        <pt x="475" y="190" on="1"/>
        <pt x="719" y="373" on="0"/>
        <pt x="1337" y="956" on="0"/>
        <pt x="1645" y="1298" on="1"/>
        <pt x="1841" y="1298" on="1"/>
        <pt x="1438" y="858" on="0"/>
        <pt x="1200" y="627" on="1"/>
        <pt x="1597" y="197" on="1"/>
        <pt x="1489" y="98" on="1"/>
        <pt x="1094" y="526" on="1"/>
        <pt x="741" y="193" on="0"/>
        <pt x="440" y="0" on="1"/>
        <pt x="279" y="0" on="1"/>
        <pt x="506" y="979" on="1"/>
        <pt x="63" y="811" on="1"/>
        <pt x="102" y="983" on="1"/>
        <pt x="436" y="1110" on="1"/>
        <pt x="522" y="1145" on="0"/>
        <pt x="580" y="1145" on="1"/>
        <pt x="627" y="1145" on="0"/>
        <pt x="668" y="1083" on="0"/>
        <pt x="668" y="1047" on="1"/>
        <pt x="668" y="965" on="0"/>
        <pt x="524" y="375" on="0"/>
      </contour>
    </TTGlyph>
    <TTGlyph name="uni172A" xMin="166" yMin="0" xMax="1083" yMax="1298">
      <contour>
        <pt x="1083" y="1298" on="1"/>
        <pt x="496" y="0" on="1"/>
        <pt x="322" y="0" on="1"/>
        <pt x="836" y="1133" on="1"/>
        <pt x="717" y="1112" on="0"/>
        <pt x="561" y="1112" on="1"/>
        <pt x="305" y="1112" on="0"/>
        <pt x="166" y="1174" on="1"/>
        <pt x="217" y="1298" on="1"/>
        <pt x="371" y="1251" on="0"/>
        <pt x="584" y="1251" on="1"/>
        <pt x="821" y="1251" on="0"/>
        <pt x="963" y="1298" on="1"/>
      </contour>
    </TTGlyph>
    <TTGlyph name="uni172B" xMin="82" yMin="0" xMax="1839" yMax="1298">
      <contour>
        <pt x="688" y="1130" on="1"/>
        <pt x="688" y="1096" on="0"/>
        <pt x="672" y="1014" on="1"/>
        <pt x="1055" y="692" on="1"/>
        <pt x="1298" y="924" on="0"/>
        <pt x="1642" y="1298" on="1"/>
        <pt x="1839" y="1298" on="1"/>
        <pt x="1442" y="860" on="0"/>
        <pt x="1167" y="596" on="1"/>
        <pt x="1612" y="223" on="1"/>
        <pt x="1513" y="111" on="1"/>
        <pt x="1061" y="496" on="1"/>
        <pt x="729" y="186" on="0"/>
        <pt x="438" y="0" on="1"/>
        <pt x="276" y="0" on="1"/>
        <pt x="526" y="1063" on="1"/>
        <pt x="82" y="870" on="1"/>
        <pt x="123" y="1049" on="1"/>
        <pt x="455" y="1190" on="1"/>
        <pt x="553" y="1229" on="0"/>
        <pt x="600" y="1229" on="1"/>
        <pt x="647" y="1229" on="0"/>
        <pt x="688" y="1167" on="0"/>
      </contour>
      <contour>
        <pt x="473" y="190" on="1"/>
        <pt x="586" y="274" on="0"/>
        <pt x="911" y="553" on="0"/>
        <pt x="946" y="592" on="1"/>
        <pt x="635" y="856" on="1"/>
        <pt x="539" y="442" on="1"/>
      </contour>
    </TTGlyph>
    <TTGlyph name="uni172C" xMin="84" yMin="0" xMax="1649" yMax="1300">
      <contour>
        <pt x="547" y="254" on="1"/>
        <pt x="655" y="389" on="1"/>
        <pt x="782" y="535" on="1"/>
        <pt x="1487" y="1298" on="1"/>
        <pt x="1649" y="1298" on="1"/>
        <pt x="1350" y="0" on="1"/>
        <pt x="1186" y="0" on="1"/>
        <pt x="1374" y="811" on="1"/>
        <pt x="1432" y="1044" on="1"/>
        <pt x="1405" y="1010" on="0"/>
        <pt x="1249" y="831" on="0"/>
        <pt x="492" y="0" on="1"/>
        <pt x="330" y="0" on="1"/>
        <pt x="590" y="1128" on="1"/>
        <pt x="84" y="881" on="1"/>
        <pt x="127" y="1065" on="1"/>
        <pt x="524" y="1260" on="1"/>
        <pt x="602" y="1300" on="0"/>
        <pt x="670" y="1300" on="1"/>
        <pt x="717" y="1300" on="0"/>
        <pt x="758" y="1237" on="0"/>
        <pt x="758" y="1200" on="1"/>
        <pt x="758" y="1141" on="0"/>
        <pt x="723" y="981" on="0"/>
        <pt x="690" y="842" on="1"/>
        <pt x="586" y="403" on="1"/>
        <pt x="569" y="324" on="0"/>
      </contour>
    </TTGlyph>
    <TTGlyph name="uni172D" xMin="139" yMin="604" xMax="1137" yMax="743">
      <contour>
        <pt x="1104" y="604" on="1"/>
        <pt x="139" y="604" on="1"/>
        <pt x="172" y="743" on="1"/>
        <pt x="1137" y="743" on="1"/>
      </contour>
    </TTGlyph>
    <TTGlyph name="uni172E" xMin="143" yMin="-338" xMax="1698" yMax="1298">
      <contour>
        <pt x="1245" y="1044" on="1"/>
        <pt x="1219" y="1010" on="0"/>
        <pt x="1063" y="831" on="0"/>
        <pt x="305" y="0" on="1"/>
        <pt x="143" y="0" on="1"/>
        <pt x="442" y="1298" on="1"/>
        <pt x="606" y="1298" on="1"/>
        <pt x="399" y="403" on="1"/>
        <pt x="383" y="324" on="0"/>
        <pt x="360" y="254" on="1"/>
        <pt x="469" y="389" on="1"/>
        <pt x="596" y="535" on="1"/>
        <pt x="1300" y="1298" on="1"/>
        <pt x="1462" y="1298" on="1"/>
        <pt x="1229" y="279" on="0"/>
        <pt x="1204" y="190" on="1"/>
        <pt x="1493" y="303" on="1"/>
        <pt x="1538" y="324" on="0"/>
        <pt x="1587" y="324" on="1"/>
        <pt x="1698" y="324" on="0"/>
        <pt x="1698" y="172" on="1"/>
        <pt x="1698" y="59" on="0"/>
        <pt x="1563" y="-215" on="0"/>
        <pt x="1444" y="-338" on="1"/>
        <pt x="1339" y="-248" on="1"/>
        <pt x="1550" y="8" on="0"/>
        <pt x="1550" y="166" on="1"/>
        <pt x="1104" y="0" on="1"/>
        <pt x="999" y="0" on="1"/>
        <pt x="1188" y="811" on="1"/>
      </contour>
    </TTGlyph>
    <TTGlyph name="uni172F" xMin="84" yMin="0" xMax="2079" yMax="1298">
      <contour>
        <pt x="596" y="1133" on="1"/>
        <pt x="84" y="881" on="1"/>
        <pt x="127" y="1065" on="1"/>
        <pt x="524" y="1260" on="1"/>
        <pt x="606" y="1298" on="0"/>
        <pt x="670" y="1298" on="1"/>
        <pt x="717" y="1298" on="0"/>
        <pt x="758" y="1237" on="0"/>
        <pt x="758" y="1200" on="1"/>
        <pt x="758" y="1118" on="0"/>
        <pt x="686" y="823" on="1"/>
        <pt x="606" y="483" on="1"/>
        <pt x="539" y="240" on="1"/>
        <pt x="725" y="422" on="1"/>
        <pt x="1090" y="776" on="0"/>
        <pt x="1282" y="1159" on="1"/>
        <pt x="1354" y="1298" on="1"/>
        <pt x="1458" y="1298" on="1"/>
        <pt x="1458" y="1147" on="1"/>
        <pt x="1458" y="1008" on="0"/>
        <pt x="1571" y="856" on="0"/>
        <pt x="1665" y="856" on="1"/>
        <pt x="1737" y="856" on="0"/>
        <pt x="1862" y="942" on="0"/>
        <pt x="1972" y="1096" on="1"/>
        <pt x="2079" y="1010" on="1"/>
        <pt x="1974" y="850" on="0"/>
        <pt x="1782" y="717" on="0"/>
        <pt x="1659" y="717" on="1"/>
        <pt x="1542" y="717" on="0"/>
        <pt x="1366" y="854" on="0"/>
        <pt x="1341" y="965" on="1"/>
        <pt x="1214" y="745" on="0"/>
        <pt x="858" y="338" on="0"/>
        <pt x="563" y="80" on="0"/>
        <pt x="434" y="0" on="1"/>
        <pt x="334" y="0" on="1"/>
      </contour>
    </TTGlyph>
    <TTGlyph name="uni1730" xMin="98" yMin="-285" xMax="1917" yMax="1298">
      <contour>
        <pt x="1458" y="1028" on="1"/>
        <pt x="1194" y="760" on="1"/>
        <pt x="668" y="225" on="0"/>
        <pt x="293" y="0" on="1"/>
        <pt x="131" y="0" on="1"/>
        <pt x="270" y="293" on="0"/>
        <pt x="455" y="788" on="0"/>
        <pt x="541" y="1137" on="1"/>
        <pt x="98" y="956" on="1"/>
        <pt x="137" y="1128" on="1"/>
        <pt x="469" y="1266" on="1"/>
        <pt x="547" y="1298" on="0"/>
        <pt x="618" y="1298" on="1"/>
        <pt x="666" y="1298" on="0"/>
        <pt x="707" y="1237" on="0"/>
        <pt x="707" y="1200" on="1"/>
        <pt x="707" y="1122" on="0"/>
        <pt x="571" y="647" on="0"/>
        <pt x="469" y="371" on="0"/>
        <pt x="410" y="248" on="1"/>
        <pt x="766" y="518" on="0"/>
        <pt x="1260" y="1030" on="1"/>
        <pt x="1520" y="1298" on="1"/>
        <pt x="1681" y="1298" on="1"/>
        <pt x="1522" y="553" on="0"/>
        <pt x="1309" y="160" on="1"/>
        <pt x="1401" y="178" on="0"/>
        <pt x="1679" y="319" on="0"/>
        <pt x="1788" y="408" on="1"/>
        <pt x="1917" y="408" on="1"/>
        <pt x="1837" y="301" on="0"/>
        <pt x="1751" y="-70" on="0"/>
        <pt x="1751" y="-285" on="1"/>
        <pt x="1602" y="-285" on="1"/>
        <pt x="1602" y="0" on="0"/>
        <pt x="1653" y="150" on="1"/>
        <pt x="1368" y="0" on="0"/>
        <pt x="1116" y="0" on="1"/>
        <pt x="1077" y="0" on="1"/>
        <pt x="1200" y="256" on="0"/>
        <pt x="1370" y="715" on="0"/>
      </contour>
    </TTGlyph>
    <TTGlyph name="uni1731" xMin="141" yMin="0" xMax="1704" yMax="1298">
      <contour>
        <pt x="338" y="190" on="1"/>
        <pt x="582" y="373" on="0"/>
        <pt x="1200" y="956" on="0"/>
        <pt x="1507" y="1298" on="1"/>
        <pt x="1704" y="1298" on="1"/>
        <pt x="821" y="324" on="0"/>
        <pt x="303" y="0" on="1"/>
        <pt x="141" y="0" on="1"/>
        <pt x="442" y="1298" on="1"/>
        <pt x="604" y="1298" on="1"/>
        <pt x="414" y="483" on="1"/>
      </contour>
    </TTGlyph>
    <TTGlyph name="uni1732" xMin="-838" yMin="1499" xMax="-211" yMax="1638">
      <contour>
        <pt x="-244" y="1499" on="1"/>
        <pt x="-838" y="1499" on="1"/>
        <pt x="-805" y="1638" on="1"/>
        <pt x="-211" y="1638" on="1"/>
      </contour>
    </TTGlyph>
    <TTGlyph name="uni1733" xMin="-791" yMin="0" xMax="-164" yMax="139">
      <contour>
        <pt x="-197" y="0" on="1"/>
        <pt x="-791" y="0" on="1"/>
        <pt x="-758" y="139" on="1"/>
        <pt x="-164" y="139" on="1"/>
      </contour>
    </TTGlyph>
    <TTGlyph name="uni1734" xMin="-858" yMin="-285" xMax="1288" yMax="1536">
      <contour>
        <pt x="1288" y="1536" on="1"/>
        <pt x="1184" y="942" on="0"/>
        <pt x="598" y="113" on="0"/>
        <pt x="-283" y="-285" on="0"/>
        <pt x="-858" y="-285" on="1"/>
        <pt x="-827" y="-145" on="1"/>
        <pt x="-39" y="-145" on="0"/>
        <pt x="979" y="733" on="0"/>
        <pt x="1126" y="1536" on="1"/>
      </contour>
    </TTGlyph>
    <TTGlyph name="uni1735" xMin="37" yMin="-285" xMax="598" yMax="1536">
      <contour>
        <pt x="37" y="-285" on="1"/>
        <pt x="455" y="1536" on="1"/>
        <pt x="598" y="1536" on="1"/>
        <pt x="178" y="-285" on="1"/>
      </contour>
    </TTGlyph>
    <TTGlyph name="uni1736" xMin="37" yMin="-285" xMax="924" yMax="1536">
      <component glyphName="uni1735" x="0" y="0" flags="0x4"/>
      <component glyphName="uni1735" x="326" y="0" flags="0x4"/>
    </TTGlyph>
</ttFont>
